<svg width="522" height="365" viewBox="0 0 522 365" fill="none" xmlns="http://www.w3.org/2000/svg">
<g filter="url(#filter0_di_37_5313)">
<g clip-path="url(#clip0_37_5313)">
<rect x="10" y="6" width="385" height="211" rx="11.6667" fill="#F7F9FB"/>
<line x1="-30.1354" y1="31.9689" x2="416.844" y2="31.9689" stroke="black" stroke-opacity="0.05" stroke-width="0.729167" stroke-linecap="round"/>
<line x1="-30.1354" y1="73.8439" x2="416.844" y2="73.8439" stroke="black" stroke-opacity="0.05" stroke-width="0.729167" stroke-linecap="round"/>
<line x1="-30.1354" y1="115.719" x2="416.844" y2="115.719" stroke="black" stroke-opacity="0.05" stroke-width="0.729167" stroke-linecap="round"/>
<line x1="-30.1354" y1="157.594" x2="416.844" y2="157.594" stroke="black" stroke-opacity="0.05" stroke-width="0.729167" stroke-linecap="round"/>
<line x1="-30.1354" y1="199.469" x2="416.844" y2="199.469" stroke="black" stroke-opacity="0.2" stroke-width="0.729167" stroke-linecap="round"/>
<path d="M16.896 142.229C23.263 136.777 37.7877 126.007 44.9505 126.553C53.9041 127.234 61.6638 135.413 71.8112 135.413C81.9586 135.413 90.5418 114.284 102.85 119.737C129.332 131.468 123.145 112.921 147.021 119.737C166.122 125.189 184.029 118.373 190.595 114.284C198.156 110.649 218.889 103.787 241.332 105.423C269.387 107.468 292.069 105.423 304.007 92.4729C307.902 88.2479 325.496 73.3882 346.984 78.841C368.473 84.2937 391.752 58.3932 395.334 55.6668" stroke="#1C1C1C" stroke-width="2.1875" stroke-linecap="round" stroke-linejoin="round"/>
<path d="M9.604 133.662C14.7082 126.781 30.0207 113.523 50.4373 115.545C75.9582 118.073 84.607 131.015 90.9061 133.662C113.146 143.009 109.5 133.662 131.739 108.804C163.879 72.8812 170.75 108.804 188.614 108.804C201.01 108.804 205.192 81.0154 241.114 91.109C257.885 95.8214 272.833 95.3221 280.489 84.3679C288.146 73.4136 311.844 64.9872 328.25 70.043C344.656 75.0988 356.763 70.42 360.698 67.5151C373.823 57.8248 383.667 65.4085 396.062 73.4136" stroke="#A8C5DA" stroke-width="2.1875" stroke-linecap="round" stroke-linejoin="round"/>
<g filter="url(#filter1_d_37_5313)">
<circle cx="2.1875" cy="2.1875" r="3.28125" transform="matrix(-1 0 0 1 270.646 86.2918)" fill="#A8C5DA" stroke="white" stroke-width="2.1875"/>
</g>
<rect x="234.188" y="62.2293" width="68.6667" height="19.8333" rx="2.91667" fill="black" fill-opacity="0.8"/>
<path d="M240.792 75.146V68.7824H244.607V69.466H241.562V71.6162H244.321V72.2998H241.562V75.146H240.792ZM245.776 75.146V70.3733H246.485V71.0941H246.535C246.622 70.858 246.779 70.6664 247.007 70.5193C247.235 70.3722 247.492 70.2987 247.777 70.2987C247.831 70.2987 247.899 70.2997 247.979 70.3018C248.06 70.3039 248.121 70.307 248.163 70.3111V71.0569C248.138 71.0506 248.081 71.0413 247.992 71.0289C247.905 71.0144 247.813 71.0071 247.715 71.0071C247.483 71.0071 247.276 71.0558 247.094 71.1532C246.914 71.2485 246.771 71.3811 246.665 71.5509C246.561 71.7187 246.51 71.9103 246.51 72.1258V75.146H245.776ZM249.032 75.146V70.3733H249.765V75.146H249.032ZM249.405 69.5778C249.262 69.5778 249.139 69.5291 249.035 69.4318C248.934 69.3344 248.883 69.2174 248.883 69.0807C248.883 68.9439 248.934 68.8269 249.035 68.7295C249.139 68.6322 249.262 68.5835 249.405 68.5835C249.548 68.5835 249.67 68.6322 249.772 68.7295C249.875 68.8269 249.927 68.9439 249.927 69.0807C249.927 69.2174 249.875 69.3344 249.772 69.4318C249.67 69.5291 249.548 69.5778 249.405 69.5778ZM251.643 75.1957C251.49 75.1957 251.358 75.1408 251.248 75.031C251.138 74.9212 251.084 74.7897 251.084 74.6364C251.084 74.4831 251.138 74.3516 251.248 74.2418C251.358 74.132 251.49 74.0771 251.643 74.0771C251.796 74.0771 251.928 74.132 252.037 74.2418C252.147 74.3516 252.202 74.4831 252.202 74.6364C252.202 74.7379 252.176 74.8311 252.124 74.9161C252.075 75.001 252.007 75.0694 251.923 75.1211C251.84 75.1709 251.746 75.1957 251.643 75.1957ZM251.643 71.6535C251.49 71.6535 251.358 71.5986 251.248 71.4888C251.138 71.379 251.084 71.2474 251.084 71.0941C251.084 70.9409 251.138 70.8093 251.248 70.6995C251.358 70.5897 251.49 70.5348 251.643 70.5348C251.796 70.5348 251.928 70.5897 252.037 70.6995C252.147 70.8093 252.202 70.9409 252.202 71.0941C252.202 71.1957 252.176 71.2889 252.124 71.3738C252.075 71.4587 252.007 71.5271 251.923 71.5789C251.84 71.6286 251.746 71.6535 251.643 71.6535ZM257.955 75.233C257.591 75.233 257.262 75.1605 256.97 75.0155C256.678 74.8705 256.444 74.6716 256.268 74.4189C256.092 74.1662 255.996 73.8782 255.979 73.5551H256.725C256.754 73.843 256.884 74.0812 257.116 74.2698C257.35 74.4562 257.63 74.5494 257.955 74.5494C258.216 74.5494 258.448 74.4883 258.651 74.3661C258.856 74.2439 259.017 74.0761 259.133 73.8627C259.251 73.6473 259.31 73.4039 259.31 73.1325C259.31 72.8549 259.249 72.6074 259.127 72.3899C259.007 72.1703 258.841 71.9973 258.63 71.871C258.418 71.7446 258.177 71.6804 257.906 71.6783C257.711 71.6762 257.511 71.7063 257.306 71.7684C257.101 71.8285 256.932 71.9062 256.799 72.0015L256.078 71.9145L256.464 68.7824H259.77V69.466H257.11L256.886 71.3427H256.924C257.054 71.2392 257.218 71.1532 257.415 71.0848C257.611 71.0165 257.816 70.9823 258.03 70.9823C258.419 70.9823 258.766 71.0755 259.071 71.2619C259.377 71.4463 259.618 71.699 259.792 72.0201C259.968 72.3412 260.056 72.7078 260.056 73.1201C260.056 73.5261 259.965 73.8886 259.782 74.2076C259.602 74.5245 259.353 74.7752 259.037 74.9596C258.72 75.1419 258.359 75.233 257.955 75.233ZM262.157 74.276L262.107 74.6116C262.072 74.8477 262.018 75.1004 261.946 75.3697C261.875 75.639 261.802 75.8928 261.725 76.131C261.648 76.3692 261.585 76.5588 261.536 76.6996H260.976C261.003 76.567 261.038 76.392 261.082 76.1745C261.125 75.957 261.169 75.7136 261.212 75.4443C261.258 75.1771 261.295 74.9036 261.324 74.624L261.362 74.276H262.157ZM263.503 75.146V74.5867L265.604 72.2873C265.85 72.018 266.053 71.784 266.213 71.5851C266.372 71.3842 266.49 71.1957 266.567 71.0196C266.646 70.8414 266.685 70.655 266.685 70.4603C266.685 70.2366 266.631 70.0429 266.523 69.8792C266.418 69.7156 266.273 69.5892 266.088 69.5001C265.904 69.4111 265.697 69.3665 265.467 69.3665C265.223 69.3665 265.009 69.4173 264.827 69.5188C264.647 69.6182 264.507 69.758 264.407 69.9383C264.31 70.1185 264.261 70.3298 264.261 70.5721H263.528C263.528 70.1993 263.614 69.872 263.786 69.5902C263.958 69.3085 264.192 69.0889 264.488 68.9315C264.787 68.7741 265.121 68.6954 265.492 68.6954C265.865 68.6954 266.195 68.7741 266.483 68.9315C266.771 69.0889 266.997 69.3013 267.16 69.5685C267.324 69.8357 267.406 70.133 267.406 70.4603C267.406 70.6944 267.363 70.9233 267.279 71.147C267.196 71.3686 267.051 71.6162 266.844 71.8896C266.638 72.161 266.354 72.4924 265.989 72.8839L264.56 74.4127V74.4624H267.518V75.146H263.503ZM270.79 75.233C270.425 75.233 270.097 75.1605 269.805 75.0155C269.513 74.8705 269.279 74.6716 269.102 74.4189C268.926 74.1662 268.83 73.8782 268.813 73.5551H269.559C269.588 73.843 269.719 74.0812 269.951 74.2698C270.185 74.4562 270.464 74.5494 270.79 74.5494C271.051 74.5494 271.283 74.4883 271.486 74.3661C271.691 74.2439 271.851 74.0761 271.967 73.8627C272.085 73.6473 272.144 73.4039 272.144 73.1325C272.144 72.8549 272.083 72.6074 271.961 72.3899C271.841 72.1703 271.675 71.9973 271.464 71.871C271.253 71.7446 271.011 71.6804 270.74 71.6783C270.545 71.6762 270.345 71.7063 270.14 71.7684C269.935 71.8285 269.766 71.9062 269.634 72.0015L268.913 71.9145L269.298 68.7824H272.604V69.466H269.945L269.721 71.3427H269.758C269.889 71.2392 270.052 71.1532 270.249 71.0848C270.446 71.0165 270.651 70.9823 270.864 70.9823C271.254 70.9823 271.601 71.0755 271.905 71.2619C272.212 71.4463 272.452 71.699 272.626 72.0201C272.802 72.3412 272.89 72.7078 272.89 73.1201C272.89 73.5261 272.799 73.8886 272.617 74.2076C272.437 74.5245 272.188 74.7752 271.871 74.9596C271.554 75.1419 271.194 75.233 270.79 75.233ZM273.975 73.1325C273.98 72.9336 274.01 72.7275 274.066 72.5142C274.121 72.3008 274.216 72.0636 274.348 71.8026C274.481 71.5416 274.663 71.2392 274.895 70.8953L276.324 68.7824H277.17L275.492 71.2309C275.566 71.206 275.643 71.1853 275.722 71.1687C275.802 71.1522 275.883 71.1439 275.964 71.1439C276.349 71.1439 276.693 71.2329 276.996 71.4111C277.3 71.5892 277.539 71.8326 277.713 72.1413C277.89 72.4499 277.978 72.8011 277.978 73.1946C277.978 73.5882 277.891 73.9383 277.717 74.2449C277.545 74.5515 277.307 74.7928 277.005 74.9689C276.705 75.145 276.362 75.233 275.976 75.233C275.587 75.233 275.241 75.1429 274.939 74.9627C274.636 74.7804 274.399 74.5318 274.227 74.2169C274.055 73.9 273.971 73.5385 273.975 73.1325ZM274.709 73.1822C274.709 73.4515 274.763 73.6897 274.87 73.8969C274.978 74.104 275.127 74.2666 275.318 74.3847C275.508 74.5028 275.728 74.5618 275.976 74.5618C276.225 74.5618 276.445 74.5038 276.635 74.3878C276.826 74.2698 276.975 74.1082 277.083 73.9031C277.19 73.6959 277.244 73.4598 277.244 73.1946C277.244 72.9254 277.19 72.6882 277.083 72.4831C276.975 72.278 276.826 72.1175 276.635 72.0015C276.445 71.8855 276.225 71.8275 275.976 71.8275C275.728 71.8275 275.508 71.8855 275.318 72.0015C275.127 72.1154 274.978 72.2749 274.87 72.48C274.763 72.683 274.709 72.9171 274.709 73.1822ZM280.255 74.276L280.205 74.6116C280.17 74.8477 280.116 75.1004 280.044 75.3697C279.973 75.639 279.9 75.8928 279.823 76.131C279.747 76.3692 279.683 76.5588 279.634 76.6996H279.074C279.101 76.567 279.137 76.392 279.18 76.1745C279.224 75.957 279.267 75.7136 279.311 75.4443C279.356 75.1771 279.393 74.9036 279.422 74.624L279.46 74.276H280.255ZM283.462 75.233C283.097 75.233 282.769 75.1605 282.477 75.0155C282.185 74.8705 281.951 74.6716 281.775 74.4189C281.599 74.1662 281.502 73.8782 281.486 73.5551H282.231C282.26 73.843 282.391 74.0812 282.623 74.2698C282.857 74.4562 283.137 74.5494 283.462 74.5494C283.723 74.5494 283.955 74.4883 284.158 74.3661C284.363 74.2439 284.523 74.0761 284.639 73.8627C284.758 73.6473 284.817 73.4039 284.817 73.1325C284.817 72.8549 284.755 72.6074 284.633 72.3899C284.513 72.1703 284.347 71.9973 284.136 71.871C283.925 71.7446 283.683 71.6804 283.412 71.6783C283.217 71.6762 283.017 71.7063 282.812 71.7684C282.607 71.8285 282.439 71.9062 282.306 72.0015L281.585 71.9145L281.97 68.7824H285.276V69.466H282.617L282.393 71.3427H282.43C282.561 71.2392 282.724 71.1532 282.921 71.0848C283.118 71.0165 283.323 70.9823 283.536 70.9823C283.926 70.9823 284.273 71.0755 284.577 71.2619C284.884 71.4463 285.124 71.699 285.298 72.0201C285.474 72.3412 285.562 72.7078 285.562 73.1201C285.562 73.5261 285.471 73.8886 285.289 74.2076C285.109 74.5245 284.86 74.7752 284.543 74.9596C284.226 75.1419 283.866 75.233 283.462 75.233ZM286.648 70.7337C286.648 70.3401 286.733 69.99 286.905 69.6835C287.079 69.3769 287.317 69.1355 287.617 68.9595C287.919 68.7834 288.263 68.6954 288.649 68.6954C289.038 68.6954 289.384 68.7865 289.686 68.9688C289.989 69.149 290.226 69.3976 290.398 69.7145C290.57 70.0294 290.654 70.3898 290.65 70.7959C290.646 70.9947 290.615 71.2008 290.56 71.4142C290.504 71.6276 290.409 71.8647 290.277 72.1258C290.144 72.3868 289.962 72.6892 289.73 73.0331L288.301 75.146H287.455L289.133 72.6975C289.059 72.7223 288.981 72.7431 288.9 72.7596C288.822 72.7762 288.742 72.7845 288.661 72.7845C288.276 72.7845 287.931 72.6954 287.626 72.5173C287.324 72.3391 287.085 72.0957 286.909 71.7871C286.735 71.4784 286.648 71.1273 286.648 70.7337ZM287.381 70.7337C287.381 71.003 287.435 71.2402 287.542 71.4453C287.65 71.6503 287.799 71.8109 287.99 71.9269C288.18 72.0429 288.4 72.1009 288.649 72.1009C288.897 72.1009 289.117 72.0439 289.307 71.93C289.498 71.814 289.647 71.6545 289.755 71.4515C289.862 71.2464 289.916 71.0113 289.916 70.7461C289.916 70.4768 289.862 70.2386 289.755 70.0315C289.647 69.8243 289.498 69.6617 289.307 69.5436C289.117 69.4256 288.897 69.3665 288.649 69.3665C288.4 69.3665 288.18 69.4256 287.99 69.5436C287.799 69.6596 287.65 69.8212 287.542 70.0284C287.435 70.2334 287.381 70.4686 287.381 70.7337ZM293.859 75.233C293.433 75.233 293.056 75.1574 292.728 75.0062C292.403 74.8529 292.149 74.6426 291.967 74.3754C291.785 74.1061 291.695 73.7995 291.697 73.4557C291.695 73.1864 291.748 72.9378 291.855 72.7099C291.963 72.48 292.11 72.2884 292.296 72.1351C292.485 71.9797 292.695 71.8813 292.927 71.8399V71.8026C292.623 71.7239 292.38 71.553 292.2 71.2899C292.02 71.0248 291.931 70.7234 291.933 70.3857C291.931 70.0625 292.013 69.7736 292.178 69.5188C292.344 69.264 292.572 69.063 292.862 68.916C293.154 68.7689 293.487 68.6954 293.859 68.6954C294.228 68.6954 294.558 68.7689 294.848 68.916C295.138 69.063 295.365 69.264 295.531 69.5188C295.699 69.7736 295.784 70.0625 295.786 70.3857C295.784 70.7234 295.692 71.0248 295.509 71.2899C295.329 71.553 295.09 71.7239 294.792 71.8026V71.8399C295.022 71.8813 295.229 71.9797 295.413 72.1351C295.597 72.2884 295.745 72.48 295.854 72.7099C295.964 72.9378 296.02 73.1864 296.022 73.4557C296.02 73.7995 295.927 74.1061 295.742 74.3754C295.56 74.6426 295.306 74.8529 294.981 75.0062C294.658 75.1574 294.284 75.233 293.859 75.233ZM293.859 74.5494C294.147 74.5494 294.396 74.5028 294.605 74.4096C294.814 74.3164 294.976 74.1848 295.09 74.015C295.204 73.8451 295.262 73.6462 295.264 73.4184C295.262 73.1781 295.2 72.9657 295.077 72.7814C294.955 72.597 294.789 72.452 294.577 72.3464C294.368 72.2407 294.129 72.1879 293.859 72.1879C293.588 72.1879 293.346 72.2407 293.132 72.3464C292.921 72.452 292.754 72.597 292.632 72.7814C292.512 72.9657 292.453 73.1781 292.455 73.4184C292.453 73.6462 292.508 73.8451 292.62 74.015C292.734 74.1848 292.896 74.3164 293.107 74.4096C293.319 74.5028 293.569 74.5494 293.859 74.5494ZM293.859 71.5292C294.087 71.5292 294.289 71.4836 294.465 71.3924C294.644 71.3013 294.783 71.1739 294.885 71.0103C294.986 70.8466 295.038 70.655 295.04 70.4354C295.038 70.22 294.987 70.0325 294.888 69.873C294.789 69.7114 294.651 69.5871 294.475 69.5001C294.299 69.4111 294.094 69.3665 293.859 69.3665C293.621 69.3665 293.413 69.4111 293.235 69.5001C293.057 69.5871 292.919 69.7114 292.822 69.873C292.724 70.0325 292.677 70.22 292.679 70.4354C292.677 70.655 292.725 70.8466 292.825 71.0103C292.926 71.1739 293.066 71.3013 293.244 71.3924C293.422 71.4836 293.627 71.5292 293.859 71.5292Z" fill="white"/>
<path d="M40.4716 35.3636V47H38.7159V35.3636H40.4716ZM44.5909 41.8182V47H42.892V38.2727H44.5227V39.6932H44.6307C44.8314 39.2311 45.1458 38.8598 45.5739 38.5795C46.0057 38.2992 46.5492 38.1591 47.2045 38.1591C47.7992 38.1591 48.3201 38.2841 48.767 38.5341C49.214 38.7803 49.5606 39.1477 49.8068 39.6364C50.053 40.125 50.1761 40.7292 50.1761 41.4489V47H48.4773V41.6534C48.4773 41.0208 48.3125 40.5265 47.983 40.1705C47.6534 39.8106 47.2008 39.6307 46.625 39.6307C46.2311 39.6307 45.8807 39.7159 45.5739 39.8864C45.2708 40.0568 45.0303 40.3068 44.8523 40.6364C44.678 40.9621 44.5909 41.3561 44.5909 41.8182ZM56.1307 47.1761C55.286 47.1761 54.5587 46.9848 53.9489 46.6023C53.3428 46.2159 52.8769 45.6837 52.5511 45.0057C52.2254 44.3277 52.0625 43.5511 52.0625 42.6761C52.0625 41.7898 52.2292 41.0076 52.5625 40.3295C52.8958 39.6477 53.3655 39.1155 53.9716 38.733C54.5777 38.3504 55.2917 38.1591 56.1136 38.1591C56.7765 38.1591 57.3674 38.2822 57.8864 38.5284C58.4053 38.7708 58.8239 39.1117 59.142 39.5511C59.464 39.9905 59.6553 40.5038 59.7159 41.0909H58.0625C57.9716 40.6818 57.7633 40.3295 57.4375 40.0341C57.1155 39.7386 56.6837 39.5909 56.142 39.5909C55.6686 39.5909 55.2538 39.7159 54.8977 39.9659C54.5455 40.2121 54.2708 40.5644 54.0739 41.0227C53.8769 41.4773 53.7784 42.0152 53.7784 42.6364C53.7784 43.2727 53.875 43.822 54.0682 44.2841C54.2614 44.7462 54.5341 45.1042 54.8864 45.358C55.2424 45.6117 55.661 45.7386 56.142 45.7386C56.464 45.7386 56.7557 45.6799 57.017 45.5625C57.2822 45.4413 57.5038 45.2689 57.6818 45.0455C57.8636 44.822 57.9905 44.553 58.0625 44.2386H59.7159C59.6553 44.803 59.4716 45.3068 59.1648 45.75C58.858 46.1932 58.447 46.5417 57.9318 46.7955C57.4205 47.0492 56.8201 47.1761 56.1307 47.1761ZM65.2088 47.1761C64.3906 47.1761 63.6766 46.9886 63.0668 46.6136C62.4569 46.2386 61.9834 45.714 61.6463 45.0398C61.3092 44.3655 61.1406 43.5777 61.1406 42.6761C61.1406 41.7708 61.3092 40.9792 61.6463 40.3011C61.9834 39.6231 62.4569 39.0966 63.0668 38.7216C63.6766 38.3466 64.3906 38.1591 65.2088 38.1591C66.027 38.1591 66.741 38.3466 67.3509 38.7216C67.9607 39.0966 68.4342 39.6231 68.7713 40.3011C69.1084 40.9792 69.277 41.7708 69.277 42.6761C69.277 43.5777 69.1084 44.3655 68.7713 45.0398C68.4342 45.714 67.9607 46.2386 67.3509 46.6136C66.741 46.9886 66.027 47.1761 65.2088 47.1761ZM65.2145 45.75C65.7448 45.75 66.1842 45.6098 66.5327 45.3295C66.8812 45.0492 67.1387 44.6761 67.3054 44.2102C67.4759 43.7443 67.5611 43.2311 67.5611 42.6705C67.5611 42.1136 67.4759 41.6023 67.3054 41.1364C67.1387 40.6667 66.8812 40.2898 66.5327 40.0057C66.1842 39.7216 65.7448 39.5795 65.2145 39.5795C64.6804 39.5795 64.2372 39.7216 63.8849 40.0057C63.5365 40.2898 63.277 40.6667 63.1065 41.1364C62.9399 41.6023 62.8565 42.1136 62.8565 42.6705C62.8565 43.2311 62.9399 43.7443 63.1065 44.2102C63.277 44.6761 63.5365 45.0492 63.8849 45.3295C64.2372 45.6098 64.6804 45.75 65.2145 45.75ZM71.1733 47V38.2727H72.804V39.6932H72.9119C73.0938 39.2121 73.3911 38.8371 73.804 38.5682C74.2169 38.2955 74.7112 38.1591 75.2869 38.1591C75.8703 38.1591 76.3589 38.2955 76.7528 38.5682C77.1506 38.8409 77.4441 39.2159 77.6335 39.6932H77.7244C77.9328 39.2273 78.2642 38.8561 78.7188 38.5795C79.1733 38.2992 79.715 38.1591 80.3438 38.1591C81.1354 38.1591 81.7812 38.4072 82.2812 38.9034C82.785 39.3996 83.0369 40.1477 83.0369 41.1477V47H81.3381V41.3068C81.3381 40.7159 81.1771 40.2879 80.8551 40.0227C80.5331 39.7576 80.1487 39.625 79.7017 39.625C79.1487 39.625 78.7188 39.7955 78.4119 40.1364C78.1051 40.4735 77.9517 40.9072 77.9517 41.4375V47H76.2585V41.1989C76.2585 40.7254 76.1108 40.3447 75.8153 40.0568C75.5199 39.7689 75.1354 39.625 74.6619 39.625C74.34 39.625 74.0426 39.7102 73.7699 39.8807C73.5009 40.0473 73.2831 40.2803 73.1165 40.5795C72.9536 40.8788 72.8722 41.2254 72.8722 41.6193V47H71.1733ZM89.0753 47.1761C88.2154 47.1761 87.4749 46.9924 86.8537 46.625C86.2363 46.2538 85.759 45.733 85.4219 45.0625C85.0885 44.3883 84.9219 43.5985 84.9219 42.6932C84.9219 41.7992 85.0885 41.0114 85.4219 40.3295C85.759 39.6477 86.2287 39.1155 86.831 38.733C87.437 38.3504 88.1454 38.1591 88.956 38.1591C89.4484 38.1591 89.9257 38.2405 90.3878 38.4034C90.8499 38.5663 91.2647 38.822 91.6321 39.1705C91.9995 39.5189 92.2893 39.9716 92.5014 40.5284C92.7135 41.0814 92.8196 41.7538 92.8196 42.5455V43.1477H85.8821V41.875H91.1548C91.1548 41.428 91.0639 41.0322 90.8821 40.6875C90.7003 40.339 90.4446 40.0644 90.1151 39.8636C89.7893 39.6629 89.4067 39.5625 88.9673 39.5625C88.4901 39.5625 88.0734 39.6799 87.7173 39.9148C87.3651 40.1458 87.0923 40.4489 86.8991 40.8239C86.7098 41.1951 86.6151 41.5985 86.6151 42.0341V43.0284C86.6151 43.6117 86.7173 44.108 86.9219 44.517C87.1302 44.9261 87.42 45.2386 87.7912 45.4545C88.1624 45.6667 88.5961 45.7727 89.0923 45.7727C89.4143 45.7727 89.7079 45.7273 89.973 45.6364C90.2382 45.5417 90.4673 45.4015 90.6605 45.2159C90.8537 45.0303 91.0014 44.8011 91.1037 44.5284L92.7116 44.8182C92.5829 45.2917 92.3518 45.7064 92.0185 46.0625C91.6889 46.4148 91.2741 46.6894 90.7741 46.8864C90.2779 47.0795 89.7116 47.1761 89.0753 47.1761Z" fill="black"/>
<path d="M44.1474 80.1818V58.3636H45.5451V80.1818H44.1474ZM48.5195 65.1307C48.4286 64.3239 48.0536 63.6989 47.3945 63.2557C46.7354 62.8068 45.9059 62.5824 44.9059 62.5824C44.19 62.5824 43.5707 62.696 43.0479 62.9233C42.5252 63.1449 42.119 63.4517 41.8292 63.8438C41.5451 64.2301 41.4031 64.6705 41.4031 65.1648C41.4031 65.5795 41.4996 65.9375 41.6928 66.2386C41.8917 66.5398 42.1502 66.7926 42.4684 66.9972C42.7923 67.196 43.1388 67.3636 43.5082 67.5C43.8775 67.6307 44.2326 67.7386 44.5735 67.8239L46.2781 68.267C46.8349 68.4034 47.4059 68.5881 47.9911 68.821C48.5763 69.054 49.119 69.3608 49.619 69.7415C50.119 70.1222 50.5224 70.5938 50.8292 71.1562C51.1417 71.7188 51.2979 72.392 51.2979 73.1761C51.2979 74.1648 51.0423 75.0426 50.5309 75.8097C50.0252 76.5767 49.2894 77.1818 48.3235 77.625C47.3633 78.0682 46.2013 78.2898 44.8377 78.2898C43.5309 78.2898 42.4002 78.0824 41.4457 77.6676C40.4911 77.2528 39.744 76.6648 39.2042 75.9034C38.6644 75.1364 38.3661 74.2273 38.3093 73.1761H40.9513C41.0025 73.8068 41.207 74.3324 41.565 74.7528C41.9286 75.1676 42.3917 75.4773 42.9542 75.6818C43.5224 75.8807 44.1445 75.9801 44.8207 75.9801C45.565 75.9801 46.2269 75.8636 46.8065 75.6307C47.3917 75.392 47.8519 75.0625 48.1871 74.642C48.5224 74.2159 48.69 73.7187 48.69 73.1506C48.69 72.6335 48.5423 72.2102 48.2468 71.8807C47.957 71.5511 47.5621 71.2784 47.0621 71.0625C46.5678 70.8466 46.0082 70.6562 45.3832 70.4915L43.3207 69.929C41.9229 69.5483 40.815 68.9886 39.9968 68.25C39.1843 67.5114 38.7781 66.5341 38.7781 65.3182C38.7781 64.3125 39.0508 63.4347 39.5962 62.6847C40.1417 61.9347 40.8803 61.3523 41.8121 60.9375C42.744 60.517 43.7951 60.3068 44.9656 60.3068C46.1474 60.3068 47.19 60.5142 48.0934 60.929C49.0025 61.3438 49.7184 61.9148 50.2411 62.642C50.7639 63.3636 51.0366 64.1932 51.0593 65.1307H48.5195ZM54.7944 78L62.4137 62.9318V62.804H53.6012V60.5455H65.141V62.8807L57.5472 78H54.7944ZM73.783 78.2386C72.6126 78.2386 71.5671 78.0369 70.6467 77.6335C69.7319 77.2301 69.0075 76.6705 68.4734 75.9545C67.945 75.233 67.6609 74.3977 67.6211 73.4489H70.2972C70.3313 73.9659 70.5046 74.4148 70.8171 74.7955C71.1353 75.1705 71.5501 75.4602 72.0614 75.6648C72.5728 75.8693 73.141 75.9716 73.766 75.9716C74.4535 75.9716 75.0614 75.8523 75.5898 75.6136C76.1239 75.375 76.5415 75.0426 76.8427 74.6165C77.1438 74.1847 77.2944 73.6875 77.2944 73.125C77.2944 72.5398 77.1438 72.0256 76.8427 71.5824C76.5472 71.1335 76.1126 70.7812 75.5387 70.5256C74.9705 70.2699 74.283 70.142 73.4762 70.142H72.0018V67.9943H73.4762C74.1239 67.9943 74.6921 67.8778 75.1808 67.6449C75.6751 67.4119 76.0614 67.0881 76.3398 66.6733C76.6183 66.2528 76.7575 65.7614 76.7575 65.1989C76.7575 64.6591 76.6353 64.1903 76.391 63.7926C76.1523 63.3892 75.8114 63.0739 75.3683 62.8466C74.9308 62.6193 74.4137 62.5057 73.8171 62.5057C73.2489 62.5057 72.7177 62.6108 72.2234 62.821C71.7347 63.0256 71.337 63.321 71.0302 63.7074C70.7234 64.0881 70.5586 64.5455 70.5359 65.0795H67.9876C68.016 64.1364 68.2944 63.3068 68.8228 62.5909C69.3569 61.875 70.0614 61.3153 70.9364 60.9119C71.8114 60.5085 72.783 60.3068 73.8512 60.3068C74.9705 60.3068 75.9364 60.5256 76.7489 60.9631C77.5671 61.3949 78.1978 61.9716 78.641 62.6932C79.0898 63.4148 79.3114 64.2045 79.3058 65.0625C79.3114 66.0398 79.0387 66.8693 78.4876 67.5511C77.9421 68.233 77.2148 68.6903 76.3058 68.9233V69.0597C77.4648 69.2358 78.3626 69.696 78.9989 70.4403C79.641 71.1847 79.9592 72.108 79.9535 73.2102C79.9592 74.1705 79.6921 75.0312 79.1523 75.7926C78.6183 76.554 77.8881 77.1534 76.962 77.5909C76.0359 78.0227 74.9762 78.2386 73.783 78.2386ZM82.8086 74.5909V72.4602L90.3512 60.5455H92.0302V63.6818H90.9648L85.57 72.2216V72.358H95.908V74.5909H82.8086ZM91.0842 78V73.9432L91.1012 72.9716V60.5455H93.5984V78H91.0842ZM98.8782 78V76.0909L104.784 69.9716C105.415 69.3068 105.935 68.7244 106.344 68.2244C106.759 67.7187 107.069 67.2386 107.273 66.7841C107.478 66.3295 107.58 65.8466 107.58 65.3352C107.58 64.7557 107.444 64.2557 107.171 63.8352C106.898 63.4091 106.526 63.0824 106.054 62.8551C105.583 62.6222 105.051 62.5057 104.461 62.5057C103.836 62.5057 103.29 62.6335 102.824 62.8892C102.358 63.1449 102 63.5057 101.75 63.9716C101.5 64.4375 101.375 64.983 101.375 65.608H98.8612C98.8612 64.5455 99.1055 63.6165 99.5941 62.821C100.083 62.0256 100.753 61.4091 101.605 60.9716C102.458 60.5284 103.426 60.3068 104.512 60.3068C105.608 60.3068 106.574 60.5256 107.409 60.9631C108.25 61.3949 108.907 61.9858 109.378 62.7358C109.85 63.4801 110.086 64.321 110.086 65.2585C110.086 65.9062 109.963 66.5398 109.719 67.1591C109.48 67.7784 109.063 68.4687 108.466 69.2301C107.87 69.9858 107.04 70.9034 105.978 71.983L102.509 75.6136V75.7415H110.367V78H98.8782Z" fill="#22222E"/>
</g>
</g>
<g filter="url(#filter3_di_37_5313)">
<rect x="303" y="158" width="209" height="193" rx="10" fill="#85D9B0"/>
<rect x="356" y="295" width="104" height="8" rx="4" fill="white" fill-opacity="0.48"/>
<rect x="327" y="313" width="162" height="10" rx="5" fill="white"/>
<path d="M377.842 260.492H375.042C374.991 260.13 374.886 259.808 374.729 259.527C374.571 259.241 374.369 258.999 374.121 258.798C373.874 258.598 373.589 258.445 373.265 258.338C372.945 258.232 372.598 258.178 372.223 258.178C371.545 258.178 370.955 258.347 370.452 258.683C369.949 259.016 369.56 259.501 369.283 260.141C369.006 260.776 368.867 261.547 368.867 262.455C368.867 263.388 369.006 264.172 369.283 264.807C369.564 265.442 369.956 265.921 370.459 266.245C370.962 266.569 371.543 266.731 372.204 266.731C372.574 266.731 372.918 266.682 373.233 266.584C373.552 266.486 373.836 266.343 374.083 266.156C374.33 265.964 374.535 265.732 374.697 265.459C374.863 265.186 374.978 264.875 375.042 264.526L377.842 264.538C377.769 265.139 377.588 265.719 377.298 266.277C377.013 266.831 376.627 267.327 376.141 267.766C375.66 268.201 375.084 268.546 374.415 268.802C373.751 269.053 372.998 269.179 372.159 269.179C370.991 269.179 369.947 268.915 369.027 268.386C368.111 267.858 367.386 267.093 366.854 266.092C366.325 265.09 366.061 263.878 366.061 262.455C366.061 261.027 366.329 259.812 366.866 258.811C367.403 257.81 368.132 257.047 369.052 256.523C369.973 255.994 371.008 255.73 372.159 255.73C372.918 255.73 373.621 255.837 374.268 256.05C374.92 256.263 375.498 256.574 376.001 256.983C376.503 257.388 376.913 257.884 377.228 258.472C377.547 259.06 377.752 259.734 377.842 260.492ZM384.211 269.192C383.218 269.192 382.36 268.981 381.635 268.559C380.915 268.133 380.359 267.54 379.967 266.782C379.575 266.019 379.379 265.135 379.379 264.129C379.379 263.115 379.575 262.229 379.967 261.47C380.359 260.707 380.915 260.115 381.635 259.693C382.36 259.267 383.218 259.054 384.211 259.054C385.204 259.054 386.061 259.267 386.781 259.693C387.505 260.115 388.063 260.707 388.456 261.47C388.848 262.229 389.044 263.115 389.044 264.129C389.044 265.135 388.848 266.019 388.456 266.782C388.063 267.54 387.505 268.133 386.781 268.559C386.061 268.981 385.204 269.192 384.211 269.192ZM384.224 267.082C384.676 267.082 385.053 266.955 385.355 266.699C385.658 266.439 385.886 266.085 386.039 265.638C386.197 265.19 386.276 264.681 386.276 264.11C386.276 263.539 386.197 263.03 386.039 262.582C385.886 262.135 385.658 261.781 385.355 261.521C385.053 261.261 384.676 261.131 384.224 261.131C383.768 261.131 383.384 261.261 383.073 261.521C382.767 261.781 382.534 262.135 382.377 262.582C382.223 263.03 382.147 263.539 382.147 264.11C382.147 264.681 382.223 265.19 382.377 265.638C382.534 266.085 382.767 266.439 383.073 266.699C383.384 266.955 383.768 267.082 384.224 267.082ZM390.814 269V259.182H393.409V260.914H393.524C393.729 260.339 394.07 259.885 394.547 259.553C395.024 259.22 395.595 259.054 396.26 259.054C396.934 259.054 397.507 259.222 397.98 259.559C398.453 259.891 398.768 260.343 398.926 260.914H399.028C399.228 260.352 399.59 259.902 400.115 259.565C400.643 259.224 401.267 259.054 401.987 259.054C402.904 259.054 403.647 259.346 404.218 259.93C404.794 260.509 405.081 261.332 405.081 262.397V269H402.365V262.934C402.365 262.388 402.22 261.979 401.93 261.707C401.64 261.434 401.278 261.298 400.843 261.298C400.349 261.298 399.963 261.455 399.686 261.771C399.409 262.082 399.271 262.493 399.271 263.004V269H396.631V262.876C396.631 262.395 396.492 262.011 396.215 261.726C395.943 261.44 395.583 261.298 395.135 261.298C394.833 261.298 394.56 261.374 394.317 261.528C394.078 261.677 393.889 261.888 393.748 262.161C393.608 262.429 393.537 262.744 393.537 263.107V269H390.814ZM407.232 272.682V259.182H409.917V260.831H410.038C410.158 260.567 410.33 260.298 410.556 260.026C410.786 259.749 411.084 259.518 411.451 259.335C411.822 259.148 412.282 259.054 412.832 259.054C413.547 259.054 414.208 259.241 414.813 259.616C415.418 259.987 415.902 260.548 416.264 261.298C416.626 262.043 416.807 262.979 416.807 264.104C416.807 265.199 416.631 266.124 416.277 266.878C415.927 267.628 415.45 268.197 414.845 268.585C414.244 268.968 413.571 269.16 412.825 269.16C412.297 269.16 411.847 269.072 411.476 268.898C411.11 268.723 410.81 268.504 410.575 268.239C410.341 267.971 410.162 267.7 410.038 267.428H409.955V272.682H407.232ZM409.898 264.091C409.898 264.675 409.979 265.184 410.141 265.619C410.302 266.053 410.537 266.392 410.844 266.635C411.15 266.874 411.523 266.993 411.962 266.993C412.405 266.993 412.78 266.871 413.087 266.629C413.394 266.381 413.626 266.04 413.784 265.606C413.946 265.167 414.027 264.662 414.027 264.091C414.027 263.524 413.948 263.026 413.79 262.595C413.633 262.165 413.4 261.828 413.094 261.585C412.787 261.342 412.41 261.221 411.962 261.221C411.519 261.221 411.144 261.338 410.837 261.572C410.535 261.807 410.302 262.139 410.141 262.57C409.979 263 409.898 263.507 409.898 264.091ZM421.346 255.909V269H418.623V255.909H421.346ZM428.002 269.192C426.992 269.192 426.122 268.987 425.394 268.578C424.669 268.165 424.111 267.581 423.719 266.827C423.327 266.068 423.131 265.171 423.131 264.136C423.131 263.126 423.327 262.239 423.719 261.477C424.111 260.714 424.663 260.119 425.374 259.693C426.09 259.267 426.93 259.054 427.893 259.054C428.541 259.054 429.144 259.158 429.702 259.367C430.264 259.572 430.754 259.881 431.172 260.294C431.594 260.707 431.922 261.227 432.156 261.854C432.391 262.476 432.508 263.205 432.508 264.04V264.788H424.217V263.1H429.945C429.945 262.708 429.859 262.361 429.689 262.058C429.519 261.756 429.282 261.519 428.979 261.349C428.681 261.174 428.334 261.087 427.938 261.087C427.524 261.087 427.158 261.183 426.838 261.374C426.523 261.562 426.276 261.815 426.097 262.135C425.918 262.45 425.826 262.802 425.822 263.19V264.794C425.822 265.28 425.911 265.7 426.09 266.053C426.274 266.407 426.531 266.68 426.864 266.871C427.196 267.063 427.59 267.159 428.046 267.159C428.349 267.159 428.626 267.116 428.877 267.031C429.129 266.946 429.344 266.818 429.523 266.648C429.702 266.477 429.838 266.268 429.932 266.021L432.45 266.188C432.323 266.793 432.06 267.321 431.664 267.773C431.272 268.22 430.765 268.57 430.143 268.821C429.525 269.068 428.811 269.192 428.002 269.192ZM439.507 259.182V261.227H433.595V259.182H439.507ZM434.937 256.83H437.66V265.983C437.66 266.234 437.698 266.43 437.775 266.571C437.852 266.707 437.958 266.803 438.095 266.859C438.235 266.914 438.397 266.942 438.58 266.942C438.708 266.942 438.836 266.931 438.964 266.91C439.092 266.884 439.19 266.865 439.258 266.852L439.686 268.879C439.55 268.921 439.358 268.97 439.111 269.026C438.864 269.085 438.563 269.121 438.21 269.134C437.553 269.16 436.978 269.072 436.484 268.872C435.994 268.672 435.612 268.361 435.34 267.939C435.067 267.517 434.933 266.984 434.937 266.341V256.83ZM445.65 269.192C444.64 269.192 443.771 268.987 443.042 268.578C442.318 268.165 441.759 267.581 441.367 266.827C440.975 266.068 440.779 265.171 440.779 264.136C440.779 263.126 440.975 262.239 441.367 261.477C441.759 260.714 442.311 260.119 443.023 259.693C443.739 259.267 444.578 259.054 445.541 259.054C446.189 259.054 446.792 259.158 447.35 259.367C447.913 259.572 448.403 259.881 448.82 260.294C449.242 260.707 449.57 261.227 449.805 261.854C450.039 262.476 450.156 263.205 450.156 264.04V264.788H441.866V263.1H447.593C447.593 262.708 447.508 262.361 447.337 262.058C447.167 261.756 446.93 261.519 446.628 261.349C446.33 261.174 445.982 261.087 445.586 261.087C445.173 261.087 444.806 261.183 444.487 261.374C444.171 261.562 443.924 261.815 443.745 262.135C443.566 262.45 443.475 262.802 443.47 263.19V264.794C443.47 265.28 443.56 265.7 443.739 266.053C443.922 266.407 444.18 266.68 444.512 266.871C444.845 267.063 445.239 267.159 445.695 267.159C445.997 267.159 446.274 267.116 446.526 267.031C446.777 266.946 446.992 266.818 447.171 266.648C447.35 266.477 447.487 266.268 447.58 266.021L450.099 266.188C449.971 266.793 449.709 267.321 449.313 267.773C448.921 268.22 448.413 268.57 447.791 268.821C447.173 269.068 446.46 269.192 445.65 269.192Z" fill="white"/>
<circle cx="407.5" cy="218.5" r="22.5" fill="#D9D9D9"/>
<path d="M396 216.839L405.692 227L420 212" stroke="#85D9B0" stroke-width="3"/>
</g>
<defs>
<filter id="filter0_di_37_5313" x="0" y="0" width="405" height="231" filterUnits="userSpaceOnUse" color-interpolation-filters="sRGB">
<feFlood flood-opacity="0" result="BackgroundImageFix"/>
<feColorMatrix in="SourceAlpha" type="matrix" values="0 0 0 0 0 0 0 0 0 0 0 0 0 0 0 0 0 0 127 0" result="hardAlpha"/>
<feOffset dy="4"/>
<feGaussianBlur stdDeviation="5"/>
<feComposite in2="hardAlpha" operator="out"/>
<feColorMatrix type="matrix" values="0 0 0 0 0 0 0 0 0 0 0 0 0 0 0 0 0 0 0.15 0"/>
<feBlend mode="normal" in2="BackgroundImageFix" result="effect1_dropShadow_37_5313"/>
<feBlend mode="normal" in="SourceGraphic" in2="effect1_dropShadow_37_5313" result="shape"/>
<feColorMatrix in="SourceAlpha" type="matrix" values="0 0 0 0 0 0 0 0 0 0 0 0 0 0 0 0 0 0 127 0" result="hardAlpha"/>
<feOffset dy="-4"/>
<feGaussianBlur stdDeviation="5"/>
<feComposite in2="hardAlpha" operator="arithmetic" k2="-1" k3="1"/>
<feColorMatrix type="matrix" values="0 0 0 0 0 0 0 0 0 0 0 0 0 0 0 0 0 0 0.15 0"/>
<feBlend mode="normal" in2="shape" result="effect2_innerShadow_37_5313"/>
</filter>
<filter id="filter1_d_37_5313" x="262.625" y="84.1043" width="11.6667" height="11.6667" filterUnits="userSpaceOnUse" color-interpolation-filters="sRGB">
<feFlood flood-opacity="0" result="BackgroundImageFix"/>
<feColorMatrix in="SourceAlpha" type="matrix" values="0 0 0 0 0 0 0 0 0 0 0 0 0 0 0 0 0 0 127 0" result="hardAlpha"/>
<feOffset dy="1.45833"/>
<feGaussianBlur stdDeviation="0.729167"/>
<feComposite in2="hardAlpha" operator="out"/>
<feColorMatrix type="matrix" values="0 0 0 0 0 0 0 0 0 0 0 0 0 0 0 0 0 0 0.1 0"/>
<feBlend mode="normal" in2="BackgroundImageFix" result="effect1_dropShadow_37_5313"/>
<feBlend mode="normal" in="SourceGraphic" in2="effect1_dropShadow_37_5313" result="shape"/>
</filter>
<filter id="filter3_di_37_5313" x="293" y="152" width="229" height="213" filterUnits="userSpaceOnUse" color-interpolation-filters="sRGB">
<feFlood flood-opacity="0" result="BackgroundImageFix"/>
<feColorMatrix in="SourceAlpha" type="matrix" values="0 0 0 0 0 0 0 0 0 0 0 0 0 0 0 0 0 0 127 0" result="hardAlpha"/>
<feOffset dy="4"/>
<feGaussianBlur stdDeviation="5"/>
<feComposite in2="hardAlpha" operator="out"/>
<feColorMatrix type="matrix" values="0 0 0 0 0 0 0 0 0 0 0 0 0 0 0 0 0 0 0.15 0"/>
<feBlend mode="normal" in2="BackgroundImageFix" result="effect1_dropShadow_37_5313"/>
<feBlend mode="normal" in="SourceGraphic" in2="effect1_dropShadow_37_5313" result="shape"/>
<feColorMatrix in="SourceAlpha" type="matrix" values="0 0 0 0 0 0 0 0 0 0 0 0 0 0 0 0 0 0 127 0" result="hardAlpha"/>
<feOffset dy="-4"/>
<feGaussianBlur stdDeviation="5"/>
<feComposite in2="hardAlpha" operator="arithmetic" k2="-1" k3="1"/>
<feColorMatrix type="matrix" values="0 0 0 0 0 0 0 0 0 0 0 0 0 0 0 0 0 0 0.15 0"/>
<feBlend mode="normal" in2="shape" result="effect2_innerShadow_37_5313"/>
</filter>
<clipPath id="clip0_37_5313">
<rect x="10" y="6" width="385" height="211" rx="11.6667" fill="white"/>
</clipPath>
</defs>
</svg>
